HIERARCHY
ROOT Hips
{
	OFFSET -3.958830 18.904000 13.208200
	CHANNELS 6 Xposition Yposition Zposition Zrotation Yrotation Xrotation 
	JOINT LHipJoint
	{
		OFFSET 0.000000 0.000000 0.000000
		CHANNELS 3 Zrotation Yrotation Xrotation
		JOINT LeftUpLeg
		{
			OFFSET 1.800000 -1.400000 0.085000
			CHANNELS 3 Zrotation Yrotation Xrotation
			JOINT LeftLeg
			{
				OFFSET 2.215000 -6.000000 0.000000
				CHANNELS 3 Zrotation Yrotation Xrotation
				JOINT LeftFoot
				{
					OFFSET 2.500000 -6.900000 0.000000
					CHANNELS 3 Zrotation Yrotation Xrotation
					JOINT LeftToeBase
					{
						OFFSET 0.200000 -0.500000 1.950000
						CHANNELS 3 Zrotation Yrotation Xrotation
						End Site
						{
							OFFSET 0.000000 0.000000 0.000000
						}
					}
				}
			}
		}
	}
	JOINT RHipJoint
	{
		OFFSET 0.000000 0.000000 0.000000
		CHANNELS 3 Zrotation Yrotation Xrotation
		JOINT RightUpLeg
		{
			OFFSET -1.800000 -1.400000 0.085000
			CHANNELS 3 Zrotation Yrotation Xrotation
			JOINT RightLeg
			{
				OFFSET -2.215000 -6.000000 0.000000
				CHANNELS 3 Zrotation Yrotation Xrotation
				JOINT RightFoot
				{
					OFFSET -2.500000 -6.900000 0.000000
					CHANNELS 3 Zrotation Yrotation Xrotation
					JOINT RightToeBase
					{
						OFFSET -0.200000 -0.500000 1.950000
						CHANNELS 3 Zrotation Yrotation Xrotation
						End Site
						{
							OFFSET 0.000000 0.000000 0.000000
						}
					}
				}
			}
		}
	}
	JOINT LowerBack
	{
		OFFSET 0.000000 0.000000 0.000000
		CHANNELS 3 Zrotation Yrotation Xrotation
		JOINT Spine
		{
			OFFSET -0.087000 1.940000 -0.288900
			CHANNELS 3 Zrotation Yrotation Xrotation
			JOINT Spine1
			{
				OFFSET 0.000000 1.950000 0.060000
				CHANNELS 3 Zrotation Yrotation Xrotation
				JOINT Neck
				{
					OFFSET 0.000000 0.000000 0.000000
					CHANNELS 3 Zrotation Yrotation Xrotation
					JOINT Neck1
					{
						OFFSET 0.000000 1.600000 0.340000
						CHANNELS 3 Zrotation Yrotation Xrotation
						JOINT Head
						{
							OFFSET 0.000000 1.667000 -0.240000
							CHANNELS 3 Zrotation Yrotation Xrotation
							End Site
							{
								OFFSET 0.000000 0.000000 0.000000
							}
						}
					}
				}
				JOINT LeftShoulder
				{
					OFFSET 0.000000 0.000000 0.000000
					CHANNELS 3 Zrotation Yrotation Xrotation
					JOINT LeftArm
					{
						OFFSET 2.700000 1.550000 -0.730000
						CHANNELS 3 Zrotation Yrotation Xrotation
						JOINT LeftForeArm
						{
							OFFSET 5.450000 0.000000 0.000000
							CHANNELS 3 Zrotation Yrotation Xrotation
							JOINT LeftHand
							{
								OFFSET 3.450000 0.000000 0.000000
								CHANNELS 3 Zrotation Yrotation Xrotation
								JOINT LeftHandIndex1
								{
									OFFSET 0.750000 0.000000 0.000000
									CHANNELS 3 Zrotation Yrotation Xrotation
									End Site
									{
										OFFSET 0.000000 0.000000 0.000000
									}
								}
							}
						}
					}
				}
				JOINT RightShoulder
				{
					OFFSET 0.000000 0.000000 0.000000
					CHANNELS 3 Zrotation Yrotation Xrotation
					JOINT RightArm
					{
						OFFSET -2.700000 1.550000 -0.730000
						CHANNELS 3 Zrotation Yrotation Xrotation
						JOINT RightForeArm
						{
							OFFSET -5.450000 0.000000 0.000000
							CHANNELS 3 Zrotation Yrotation Xrotation
							JOINT RightHand
							{
								OFFSET -3.450000 0.000000 0.000000
								CHANNELS 3 Zrotation Yrotation Xrotation
								JOINT RightHandIndex1
								{
									OFFSET -0.750000 0.000000 0.000000
									CHANNELS 3 Zrotation Yrotation Xrotation
									End Site
									{
										OFFSET 0.000000 0.000000 0.000000
									}
								}
							}
						}
					}
				}
			}
		}
	}
}
MOTION
Frames: 12
Frame Time: 0.016667
-0.299180 17.000230 -2.824360 -8.483304 -20.368597 -1.273580 -15.677724 14.377869 3.115686 7.625218 0.853811 -27.397047 -2.514381 9.557473 36.582226 0.169465 6.161175 1.979651 1.046040 0.804260 1.163230 17.688021 -9.722956 3.519037 5.879313 2.012457 -6.260551 10.304585 -4.085536 5.903343 -0.872165 -2.578380 3.219185 0.187520 -0.789590 0.445420 -1.661790 -4.674411 -8.520953 3.799660 5.426712 41.043737 6.561175 8.487898 17.996889 6.167002 -3.491394 -19.773952 -7.935839 4.074837 56.242025 -11.168700 4.381800 -39.434090 -26.506549 -30.470984 10.519249 -51.918268 -5.794212 -15.295282 -8.677357 -36.079904 -3.181203 -2.696800 3.268474 0.904930 -0.606350 0.907480 0.048720 15.727915 44.444107 15.342812 35.929346 46.261176 -3.643324 49.281805 67.124161 26.263081 1.231445 -2.462602 0.360810 -0.127330 -0.504180 -0.275690 
-0.300180 16.997610 -2.827160 -8.542763 -20.528012 -1.285837 -15.685748 14.381886 3.123672 7.722454 0.893372 -27.574285 -2.480267 9.630575 36.867039 0.178469 6.218460 1.957374 1.049440 0.806910 1.167040 17.683907 -9.700120 3.517174 5.924450 2.014891 -6.186794 10.356620 -4.086370 5.872543 -0.876645 -2.581690 3.217070 0.188050 -0.793190 0.446920 -1.643544 -4.718765 -8.529733 3.720232 5.477518 41.204469 6.571968 8.536194 18.016803 6.202695 -3.492821 -19.854076 -8.006578 4.136683 56.329469 -11.227830 4.392520 -39.499320 -26.613032 -30.614341 10.514910 -51.803476 -5.852075 -15.101508 -8.410218 -35.510575 -3.195502 -2.694511 3.267111 0.906790 -0.608510 0.910920 0.049330 15.767156 44.610659 15.448445 35.741970 46.293916 -3.656936 49.827508 67.586402 26.792590 1.195173 -2.507958 0.362770 -0.128700 -0.506630 -0.276260 
-0.302090 16.992760 -2.832050 -8.669252 -20.798245 -1.340310 -15.700826 14.392468 3.136069 7.916868 0.974501 -27.875374 -2.396714 9.759001 37.394508 0.195427 6.321272 1.916208 1.052950 0.813060 1.171280 17.676085 -9.656322 3.514692 6.016107 2.007782 -6.006717 10.460866 -4.089566 5.804094 -0.885033 -2.590342 3.211824 0.189850 -0.800430 0.446650 -1.609552 -4.807910 -8.545392 3.592129 5.554033 41.555716 6.586491 8.615195 18.082058 6.276574 -3.491106 -19.989912 -8.135025 4.232143 56.458412 -11.347920 4.388770 -39.703650 -26.832575 -30.896981 10.498402 -51.528136 -6.001102 -14.702877 -7.955741 -34.402646 -3.192583 -2.690303 3.262656 0.908510 -0.613330 0.917350 0.048660 15.840859 44.932428 15.647588 35.351571 46.371023 -3.695216 50.979242 68.578880 27.920248 1.116431 -2.610005 0.365910 -0.129360 -0.509780 -0.276060 
-0.304640 16.985700 -2.838370 -8.865283 -21.165964 -1.419342 -15.721620 14.405671 3.153867 8.212664 1.092815 -28.279925 -2.291160 9.942187 38.121847 0.220919 6.466491 1.857935 1.058950 0.821840 1.178720 17.665858 -9.594747 3.511832 6.171841 1.992256 -5.745758 10.582076 -4.092219 5.708642 -0.897089 -2.602075 3.203466 0.192070 -0.811770 0.447640 -1.563798 -4.930320 -8.567962 3.444403 5.650521 42.046048 6.610378 8.722883 18.160990 6.380132 -3.487055 -20.168002 -8.313589 4.353613 56.629518 -11.531260 4.371740 -39.946480 -27.160077 -31.286097 10.481962 -51.117755 -6.206559 -14.120128 -7.370542 -32.850636 -3.161660 -2.685090 3.259116 0.909790 -0.620280 0.926600 0.047430 15.965511 45.378262 15.888866 34.801437 46.416669 -3.697714 52.726579 69.931201 29.588696 1.005547 -2.767975 0.372050 -0.132500 -0.514820 -0.275780 
-0.307800 16.977560 -2.846260 -9.092775 -21.606302 -1.538639 -15.744451 14.419436 3.175659 8.555797 1.240790 -28.751217 -2.154824 10.160343 38.999465 0.253492 6.640670 1.789402 1.067170 0.832510 1.189580 17.655357 -9.524976 3.508364 6.365491 1.969238 -5.428560 10.704100 -4.099802 5.626916 -0.913140 -2.616261 3.192900 0.193430 -0.826110 0.449760 -1.514117 -5.067595 -8.594091 3.278981 5.772007 42.673677 6.599290 8.867092 18.235067 6.505071 -3.452159 -20.403317 -8.479144 4.474944 56.882193 -11.751480 4.349910 -40.251590 -27.499404 -31.779795 10.485083 -50.599746 -6.448472 -13.397772 -6.776658 -30.993291 -3.083934 -2.678309 3.255577 0.912430 -0.629460 0.938890 0.045990 16.060305 45.917948 16.170684 34.218319 46.451804 -3.732250 54.901228 71.531696 31.595829 0.853580 -2.992532 0.380530 -0.137060 -0.521980 -0.275520 
-0.311330 16.968370 -2.854520 -9.358353 -22.106260 -1.672045 -15.769842 14.433809 3.199565 8.949385 1.418343 -29.262637 -1.997603 10.395954 39.941387 0.287433 6.830542 1.714920 1.075580 0.842250 1.200690 17.644197 -9.446471 3.504673 6.587638 1.938733 -5.057367 10.841522 -4.110726 5.534440 -0.930231 -2.634023 3.182661 0.194280 -0.841610 0.450640 -1.459550 -5.220446 -8.622735 3.111942 5.919785 43.373316 6.624184 9.039620 18.286234 6.635217 -3.441853 -20.676292 -8.739039 4.628972 57.218012 -11.972630 4.300930 -40.535640 -27.822541 -32.305055 10.508524 -50.102403 -6.676742 -12.612566 -6.286333 -29.022383 -2.963362 -2.672063 3.249601 0.916710 -0.639600 0.950940 0.044350 16.149557 46.519731 16.449090 33.657908 46.374129 -3.671012 57.643118 73.281874 33.982154 0.667189 -3.282374 0.388330 -0.141330 -0.529090 -0.276340 
-0.315620 16.958600 -2.862760 -9.628549 -22.647305 -1.805274 -15.797733 14.447602 3.223711 9.353418 1.624351 -29.801343 -1.822002 10.638501 40.899929 0.325248 7.024598 1.638882 1.085350 0.853530 1.211440 17.632120 -9.362890 3.499571 6.809939 1.903947 -4.663869 10.994609 -4.122453 5.433904 -0.950099 -2.653585 3.170390 0.194130 -0.857110 0.453760 -1.399986 -5.381147 -8.651444 2.920805 6.109518 44.061297 6.723786 9.229717 18.364163 6.762940 -3.481299 -20.970739 -9.123754 4.830247 57.622270 -12.142250 4.218930 -40.795870 -28.052340 -32.818853 10.548721 -49.769150 -6.919029 -11.835627 -5.855535 -27.092674 -2.837900 -2.666300 3.245682 0.920600 -0.651010 0.964960 0.044140 16.180215 47.167976 16.716722 33.109881 46.216878 -3.520399 60.805653 75.130976 36.580157 0.439225 -3.650585 0.399220 -0.146460 -0.536480 -0.274960 
-0.320730 16.948740 -2.870610 -9.906490 -23.189226 -1.916848 -15.824697 14.458998 3.246528 9.739084 1.845057 -30.361825 -1.586755 10.852166 41.839897 0.361402 7.207804 1.565834 1.095260 0.865950 1.221660 17.621413 -9.280861 3.495379 7.045222 1.867155 -4.273970 11.149606 -4.134642 5.340925 -0.969651 -2.673462 3.157783 0.194710 -0.873320 0.456090 -1.343972 -5.534831 -8.679279 2.759999 6.316974 44.700166 6.875512 9.425344 18.460328 6.884030 -3.563203 -21.286368 -9.619666 5.069918 58.092360 -12.269020 4.105360 -41.006560 -28.174710 -33.322681 10.598033 -49.568032 -7.187709 -11.072362 -5.566347 -25.233354 -2.696007 -2.661530 3.239901 0.924270 -0.663000 0.979340 0.043410 16.152353 47.833682 16.990903 32.596302 45.946158 -3.230535 64.408605 77.108058 39.279381 0.169710 -4.088021 0.410440 -0.151650 -0.544090 -0.272880 
-0.326040 16.939030 -2.877300 -10.211165 -23.714381 -1.996085 -15.848476 14.466359 3.267987 10.119407 2.081010 -30.930098 -1.304412 11.032175 42.730884 0.392080 7.378000 1.497199 1.104440 0.877590 1.230250 17.613851 -9.203776 3.494098 7.321758 1.820948 -3.889603 11.265150 -4.144306 5.242120 -0.988390 -2.691973 3.146355 0.195880 -0.888310 0.457530 -1.297875 -5.671719 -8.708450 2.673030 6.495134 45.276189 7.040268 9.599726 18.578812 7.009003 -3.672330 -21.614144 -10.177469 5.354033 58.615314 -12.396240 3.986470 -41.163990 -28.240971 -33.794352 10.650303 -49.502101 -7.440482 -10.376440 -5.367731 -23.539733 -2.562601 -2.658349 3.232227 0.928820 -0.674140 0.992390 0.042390 16.090020 48.459006 17.295182 32.095807 45.641867 -2.699240 68.214428 79.237019 41.833115 -0.101637 -4.518851 0.420110 -0.155180 -0.549940 -0.271450 
-0.331820 16.930190 -2.882940 -10.531917 -24.248105 -2.048327 -15.868649 14.471758 3.285742 10.510730 2.344598 -31.456721 -1.013436 11.192421 43.532522 0.419474 7.531813 1.434756 1.114210 0.889550 1.238400 17.609235 -9.133699 3.495894 7.618521 1.773905 -3.519079 11.357098 -4.153370 5.158454 -1.007090 -2.709686 3.135631 0.197640 -0.902550 0.458550 -1.261203 -5.789814 -8.739753 2.639483 6.666472 45.803005 7.204363 9.779100 18.722793 7.130495 -3.799907 -21.974491 -10.787067 5.667242 59.167650 -12.462430 3.860480 -41.275750 -28.265107 -34.226536 10.685128 -49.517910 -7.671276 -9.775051 -5.264483 -22.058735 -2.440786 -2.654634 3.224854 0.933920 -0.685250 1.005060 0.042080 16.018989 49.006457 17.702938 31.551444 45.359310 -1.805215 72.251703 81.680147 44.192380 -0.304320 -4.831495 0.429270 -0.157930 -0.555940 -0.269990 
-0.337900 16.922000 -2.887500 -10.837012 -24.777445 -2.077735 -15.886317 14.475128 3.300398 10.877680 2.613247 -31.937683 -0.711423 11.331273 44.264982 0.444250 7.669669 1.377538 1.123070 0.900910 1.246270 17.606329 -9.071196 3.499590 7.904703 1.722786 -3.171106 11.429314 -4.158074 5.059655 -1.024073 -2.725271 3.125860 0.199280 -0.916480 0.458300 -1.230420 -5.889561 -8.772394 2.615722 6.827761 46.269013 7.332253 9.952185 18.863981 7.236931 -3.903075 -22.332424 -11.346700 5.969268 59.709742 -12.501410 3.752250 -41.351010 -28.254305 -34.588500 10.688203 -49.545170 -7.876183 -9.241572 -5.294291 -20.730775 -2.319443 -2.652333 3.218044 0.938060 -0.696060 1.016470 0.040830 15.931788 49.390105 18.187386 31.017656 45.233878 -0.506003 76.300692 84.379360 46.321800 -0.308605 -4.857008 0.437890 -0.160480 -0.561100 -0.268850 
-0.343520 16.915030 -2.891000 -11.140153 -25.282522 -2.085632 -15.900313 14.478218 3.310767 11.210736 2.883029 -32.371873 -0.378570 11.430835 44.916159 0.466139 7.786639 1.327998 1.130500 0.910120 1.253720 17.605180 -9.018136 3.506943 8.190855 1.669355 -2.844543 11.477441 -4.159245 4.946758 -1.039638 -2.739139 3.116523 0.199460 -0.929890 0.458500 -1.206840 -5.969872 -8.803353 2.628667 6.936435 46.699318 7.355571 10.102887 18.939583 7.331617 -3.956175 -22.686986 -11.811969 6.238797 60.284962 -12.539610 3.660670 -41.365090 -28.272384 -34.887038 10.683666 -49.531789 -7.997618 -8.772088 -5.401588 -19.542499 -2.204321 -2.650814 3.212360 0.941810 -0.705980 1.026820 0.038460 15.862807 49.630311 18.664970 30.639333 45.268209 0.668845 79.481126 86.673837 47.859839 -0.158319 -4.652790 0.446490 -0.164240 -0.565290 -0.268150 
